<svg width="148" height="35" viewBox="0 0 148 35" fill="none" xmlns="http://www.w3.org/2000/svg">
<path d="M1.19209e-06 33.504V2.76566e-05H22.224V6.48003H7.296V13.344H20.016V19.776H7.296V33.504H1.19209e-06ZM34.7393 34.08C32.8193 34.08 31.1073 33.776 29.6033 33.168C28.0993 32.528 26.8193 31.648 25.7633 30.528C24.7393 29.376 23.9553 27.984 23.4113 26.352C22.8993 24.72 22.6433 22.896 22.6433 20.88C22.6433 18.896 22.8993 17.104 23.4113 15.504C23.9233 13.872 24.6753 12.48 25.6673 11.328C26.6913 10.176 27.9393 9.29603 29.4113 8.68803C30.8833 8.04803 32.5633 7.72803 34.4513 7.72803C36.5313 7.72803 38.3073 8.08003 39.7793 8.78403C41.2833 9.48803 42.4993 10.432 43.4273 11.616C44.3873 12.8 45.0753 14.176 45.4913 15.744C45.9393 17.28 46.1633 18.896 46.1633 20.592V22.704H29.9873V23.088C29.9873 24.752 30.4353 26.08 31.3313 27.072C32.2273 28.032 33.6353 28.512 35.5553 28.512C37.0273 28.512 38.2273 28.224 39.1553 27.648C40.0833 27.04 40.9473 26.32 41.7473 25.488L45.2993 29.904C44.1793 31.216 42.7073 32.24 40.8833 32.976C39.0913 33.712 37.0433 34.08 34.7393 34.08ZM34.5953 12.96C33.1553 12.96 32.0193 13.44 31.1873 14.4C30.3873 15.328 29.9873 16.576 29.9873 18.144V18.528H38.8193V18.096C38.8193 16.56 38.4673 15.328 37.7633 14.4C37.0913 13.44 36.0353 12.96 34.5953 12.96ZM49.2604 33.504V8.30403H56.3644V13.776H56.6044C56.7324 13.072 56.9564 12.4 57.2764 11.76C57.5964 11.088 58.0124 10.496 58.5244 9.98403C59.0684 9.47203 59.7084 9.07203 60.4444 8.78403C61.1804 8.46403 62.0444 8.30403 63.0364 8.30403H64.2844V14.928H62.5084C60.4284 14.928 58.8764 15.2 57.8524 15.744C56.8604 16.288 56.3644 17.296 56.3644 18.768V33.504H49.2604ZM66.7466 33.504V8.30403H73.8506V13.776H74.0906C74.2186 13.072 74.4426 12.4 74.7626 11.76C75.0826 11.088 75.4986 10.496 76.0106 9.98403C76.5546 9.47203 77.1946 9.07203 77.9306 8.78403C78.6666 8.46403 79.5306 8.30403 80.5226 8.30403H81.7706V14.928H79.9946C77.9146 14.928 76.3626 15.2 75.3386 15.744C74.3466 16.288 73.8506 17.296 73.8506 18.768V33.504H66.7466ZM99.1129 29.28H98.8729C98.6489 29.92 98.3449 30.528 97.9609 31.104C97.6089 31.68 97.1449 32.192 96.5689 32.64C95.9929 33.088 95.3049 33.44 94.5049 33.696C93.7369 33.952 92.8409 34.08 91.8169 34.08C89.2249 34.08 87.2569 33.232 85.9129 31.536C84.6009 29.808 83.9449 27.344 83.9449 24.144V8.30403H91.0489V23.52C91.0489 25.056 91.3209 26.24 91.8649 27.072C92.4089 27.904 93.3369 28.32 94.6489 28.32C95.1929 28.32 95.7369 28.24 96.2809 28.08C96.8249 27.92 97.3049 27.696 97.7209 27.408C98.1369 27.088 98.4729 26.704 98.7289 26.256C98.9849 25.808 99.1129 25.28 99.1129 24.672V8.30403H106.217V33.504H99.1129V29.28ZM110.907 33.504V8.30403H118.011V12.576H118.299C118.747 11.232 119.515 10.096 120.603 9.16803C121.691 8.20803 123.179 7.72803 125.067 7.72803C126.795 7.72803 128.267 8.16003 129.483 9.02403C130.699 9.88803 131.579 11.152 132.123 12.816H132.267C132.491 12.112 132.827 11.456 133.275 10.848C133.755 10.208 134.331 9.66403 135.003 9.21603C135.675 8.76803 136.427 8.41603 137.259 8.16003C138.091 7.87203 138.987 7.72803 139.947 7.72803C142.379 7.72803 144.235 8.59203 145.515 10.32C146.827 12.048 147.483 14.512 147.483 17.712V33.504H140.379V18.288C140.379 15.088 139.227 13.488 136.923 13.488C135.867 13.488 134.907 13.792 134.043 14.4C133.179 15.008 132.747 15.936 132.747 17.184V33.504H125.643V18.288C125.643 15.088 124.491 13.488 122.187 13.488C121.675 13.488 121.163 13.568 120.651 13.728C120.171 13.856 119.723 14.08 119.307 14.4C118.923 14.72 118.603 15.12 118.347 15.6C118.123 16.048 118.011 16.576 118.011 17.184V33.504H110.907Z" fill="#4076B9"/>
</svg>
